<svg xmlns="http://www.w3.org/2000/svg" viewBox="0 0 140.19 115.95"><defs><style>.cls-1{fill:#693;}.cls-2{fill:#3d8731;}.cls-3{fill:#ff3;}</style></defs><g id="Capa_2" data-name="Capa 2"><g id="Layer_1" data-name="Layer 1"><path class="cls-1" d="M127.76,113.14c-.21-1.91.58-3.85.64-5.76a74.55,74.55,0,0,0-.27-9.09A108.72,108.72,0,0,0,125,80.84c-.59-2.34-1.76-6.44-3.92-7.85s-5.51,0-7.4,1.17c-8,4.85-15.29,10.42-23.15,15.46S75.22,99.24,66.28,102c-6.61,2-13.66,3.88-20.63,3A50,50,0,0,1,21.24,95C13.33,88.89,8.41,81.43,4.39,72.32c-.91-2.06-5.65-9.6-4.07-11.77s5.43,2.58,7,3.07c8.1,2.61,17.78,1.07,25-3.3,4.93-3,8.93-7.28,13.52-10.76a57.9,57.9,0,0,1,28.1-11,49.63,49.63,0,0,1,10.62-.23,42.19,42.19,0,0,1,18.62,6.7c5.25,3.39,10.32,6.78,13.5,12.19,1,1.65,1.22,3.4,1.95,5.21,1.67,4.15,6.63,6.29,9,10,3.19,4.89,5,11.84,5.83,17.56,1,6.59,0,12.84.22,19.46.07,2.18.87,4.86-1.51,6.18C130.34,116.65,128,115,127.76,113.14Z"/><path class="cls-2" d="M128.48,65.59c1-5.25,3.87-11.7,10.09-11.51L137,52a21.56,21.56,0,0,1-2.73,7.62c-1.4,2.21-3.68,2.77-6,3.7l2.07,2.07a16.93,16.93,0,0,1,2.19-4.82c.43-.75,2.59-4.62,3.68-4.26-.39-.7-.79-1.39-1.18-2.08-.77,3.1-3.61,5.19-5.47,7.65-1.14,1.51,1.41,3.46,2.63,2,2.29-2.7,5.22-5.21,6.09-8.77A1.71,1.71,0,0,0,137.13,53c-2.56-.83-4.59,1.71-5.95,3.48a21.31,21.31,0,0,0-4.06,8c-.23,1.1.78,2.59,2.07,2.06,2.46-1,4.83-1.69,6.73-3.66,2.56-2.66,3.59-6.5,4.24-10a1.68,1.68,0,0,0-1.59-2.09c-7.75-.16-12.65,7.37-11.69,14.6.11.83,1.41,1.21,1.6.21Z"/><path class="cls-3" d="M79.68,46.75l0-.14a8.59,8.59,0,0,0-5.31-9.38l-.11,0C70.87,35.82,54.18,26,54.18,26s19.37-.22,23,.29l.12,0a8.59,8.59,0,0,0,9.29-5.51l0-.09C88,17.17,97.87,0,97.87,0s0,19.79-.56,23.52l0,.12A8.6,8.6,0,0,0,102.6,33l.1.05c3.44,1.37,20.18,11.21,20.18,11.21s-19.42.2-23.07-.31l-.15,0a8.57,8.57,0,0,0-9.25,5.51l0,.12C89,53.1,79.15,70.22,79.15,70.22S79.14,50.47,79.68,46.75Z"/><path class="cls-3" d="M110.31,25.55a86.68,86.68,0,0,0,9.53-9,84.66,84.66,0,0,0-12.37,4,3.07,3.07,0,0,0-1.6,4.27l0,.06A2.92,2.92,0,0,0,110.31,25.55Z"/><path class="cls-3" d="M79.32,13A83.75,83.75,0,0,0,70.57,3.4,84.49,84.49,0,0,0,74.33,16a2.92,2.92,0,0,0,4.17,1.59l.08,0A3.08,3.08,0,0,0,79.32,13Z"/><path class="cls-3" d="M66.65,44.74a84.66,84.66,0,0,0-9.51,9,84.48,84.48,0,0,0,12.36-4,3.07,3.07,0,0,0,1.6-4.27l0-.08A2.9,2.9,0,0,0,66.65,44.74Z"/><path class="cls-3" d="M97.67,57.29a84.58,84.58,0,0,0,8.74,9.6,86.09,86.09,0,0,0-3.77-12.55,2.93,2.93,0,0,0-4.18-1.59l0,0A3.07,3.07,0,0,0,97.67,57.29Z"/></g></g></svg>